<svg width="18" height="19" viewBox="0 0 18 19" fill="none" xmlns="http://www.w3.org/2000/svg">
<g id="copy-svgrepo-com 1" clip-path="url(#clip0_89_11)">
<path id="Vector" d="M11.25 6.5H3.75C3.33579 6.5 3 6.83579 3 7.25V14.75C3 15.1642 3.33579 15.5 3.75 15.5H11.25C11.6642 15.5 12 15.1642 12 14.75V7.25C12 6.83579 11.6642 6.5 11.25 6.5Z" stroke="white" stroke-width="0.75" stroke-linecap="round" stroke-linejoin="round"/>
<path id="Vector_2" d="M6 5V4.25C6 3.83579 6.33579 3.5 6.75 3.5H14.25C14.6642 3.5 15 3.83579 15 4.25V11.75C15 12.1642 14.6642 12.5 14.25 12.5H13.5" stroke="white" stroke-width="0.75" stroke-linecap="round" stroke-linejoin="round" stroke-dasharray="1.5 1.5"/>
</g>
<defs>
<clipPath id="clip0_89_11">
<rect width="18" height="18" fill="white" transform="translate(0 0.5)"/>
</clipPath>
</defs>
</svg>
