<svg width="48" height="27" viewBox="0 0 48 27" fill="none" xmlns="http://www.w3.org/2000/svg">
<path d="M31.3108 10.5862L36 7.26308L38.0308 10.7338L47.1508 26.5H40.5046L38.0677 22.2908L31.3108 10.5862ZM15.6185 0.653845H22.2646L23.9262 3.53384L25.5877 0.653845H32.1969L36.0369 7.26308L31.3108 10.6231V10.5862L30.7938 9.7L30.6831 9.51538L30.24 8.74L30.0923 8.48154L29.6862 7.78L29.1323 6.82L28.9108 6.41385L27.2492 9.29385L28.0615 10.7338L37.1815 26.5369H10.6708L18.9415 12.1738L22.2646 17.8969L20.6031 20.7769H27.2492L20.6031 9.29385L18.9415 6.41385L16.5415 10.6231L10.6708 20.7769L7.34769 26.5369H0.738462L9.85846 10.7338L15.6185 0.653845Z" fill="black"/>
</svg>
